<?xml version="1.0" standalone="no"?>
<!DOCTYPE svg PUBLIC "-//W3C//DTD SVG 20010904//EN"
 "http://www.w3.org/TR/2001/REC-SVG-20010904/DTD/svg10.dtd">
<svg version="1.0" xmlns="http://www.w3.org/2000/svg"
 width="50.000000pt" height="50.000000pt" viewBox="0 0 50.000000 50.000000"
 preserveAspectRatio="xMidYMid meet">

<g transform="translate(0.000000,50.000000) scale(0.100000,-0.100000)"
fill="#000000" stroke="none">
<path d="M55 445 c-18 -17 -25 -35 -25 -63 0 -57 28 -139 58 -172 27 -29 27
-29 105 -21 50 6 84 15 97 26 18 16 19 15 29 -22 6 -21 11 -61 11 -90 0 -44 4
-55 26 -72 17 -13 41 -21 65 -21 l39 0 0 121 c0 121 0 121 -22 114 -56 -17
-79 -17 -99 1 -38 34 -64 104 -39 104 6 0 10 -7 10 -16 0 -24 32 -73 52 -80 9
-3 35 0 58 7 l40 12 0 99 0 98 -32 0 c-76 -1 -198 -60 -198 -97 0 -7 -11 -13
-25 -13 -13 0 -33 -9 -43 -21 l-20 -20 -22 31 c-12 17 -21 32 -19 33 49 26 60
47 39 72 -19 23 -58 18 -85 -10z"/>
</g>
</svg>
